<svg width="42" height="42" viewBox="0 0 42 42" fill="none" xmlns="http://www.w3.org/2000/svg">
<circle cx="21" cy="21" r="20" fill="black"/>
<path d="M24.8484 26.7838C24.29 26.0993 23.8205 25.8034 22.4308 25.5989C23.0079 24.9815 23.6145 24.9005 25.237 25.0911C26.6914 25.4537 27.0671 25.8716 27.3956 26.7838C26.4569 27.4013 26.0645 27.7253 25.8846 28.2226C25.8685 29.0252 26.6297 29.3758 28 30C26.3619 29.8493 20.7902 30 21.0061 29.3229C21.222 28.6458 22.5384 27.8241 24.8484 26.7838Z" fill="#D1D3D5"/>
<path d="M32.5538 14.7125C31.6778 15.285 31.294 15.7639 31 17.5L35.5 21C37 20.5 38.181 19.3028 37.9687 17.2883C37.7137 15.8729 37.3283 15.2139 35.9911 14.3905C34.4304 13.8164 33.6611 13.8361 32.5538 14.7125Z" fill="#FECC28"/>
<path d="M8.28541 21.5126C4.88637 24.4963 3.37539 25.4594 2 24.8043C5.16051 22.7003 6.96195 21.2076 10.2162 18.0942C11.0123 17.1882 11.6281 16.7712 13.0919 16.2584C13.7476 16.4362 14.0207 16.6235 14.3654 17.0814C15.2107 17.6454 15.6879 17.6964 16.5427 17.4612C18.3272 17.143 19.0824 16.4203 20.2811 14.8025C21.8508 12.9544 22.7487 11.847 23.8141 12.0172C24.8093 12.2201 25.3945 12.993 26.4432 14.486C26.9849 14.3989 27.3126 14.393 27.9632 14.486C28.8391 14.5864 29.3291 14.5788 30.2227 15.752C31.6991 17.3678 32.6748 18.3366 34.8649 20.2465C36.3552 21.5974 37.6064 22.421 40 23.9181C38.919 23.7573 38.3379 23.5456 37.3297 23.0318C34.7483 21.569 33.7658 20.7993 32.6054 19.4869C31.1213 17.6662 30.2311 16.1948 28.9903 16.2584C28.6956 16.6306 28.7347 17.0225 29.1957 18.0942C29.2396 18.7667 29.5261 19.2666 30.2227 20.2465C29.1439 19.7875 28.3752 19.1492 26.7719 17.4612C25.3966 15.7748 24.6261 14.7425 23.2389 14.8025C21.8992 15.4553 21.3269 16.1947 20.2811 17.4612C19.2739 18.2062 18.6868 18.5781 17.9805 19.93C17.7693 21.4715 18.7863 22.3488 20.8562 23.9181C19.3141 23.5222 18.3478 22.9134 16.5427 21.5126C14.9504 19.6506 14.0363 18.7688 12.1881 18.8539C11.1259 19.2618 10.0968 20.0823 8.28541 21.5126Z" fill="#A7CE43"/>
</svg>
